<?xml version="1.0" standalone="no"?>
<!DOCTYPE svg PUBLIC "-//W3C//DTD SVG 20010904//EN"
 "http://www.w3.org/TR/2001/REC-SVG-20010904/DTD/svg10.dtd">
<svg version="1.0" xmlns="http://www.w3.org/2000/svg"
 width="700.000000pt" height="700.000000pt" viewBox="0 0 700.000000 700.000000"
 preserveAspectRatio="xMidYMid meet">
<metadata>
Created by potrace 1.14, written by Peter Selinger 2001-2017
</metadata>
<g transform="translate(0.000000,700.000000) scale(0.100000,-0.100000)"
fill="#000000" stroke="none">
<path d="M2256 5361 c-2 -3 -3 -843 -2 -1866 l1 -1860 137 -1 137 0 1 700 c0
385 3 702 6 705 3 3 235 6 516 6 l511 0 111 -130 c61 -71 113 -132 116 -135 3
-3 43 -50 90 -105 47 -55 99 -116 116 -135 17 -19 145 -168 283 -330 139 -162
274 -320 300 -350 27 -30 80 -93 120 -140 l72 -85 179 -1 179 -1 -20 25 c-11
14 -41 50 -68 81 -44 51 -128 150 -236 276 -149 176 -251 295 -278 325 -18 20
-52 60 -77 90 -25 30 -47 57 -50 60 -3 3 -46 52 -95 110 -50 58 -94 110 -100
116 -5 6 -26 30 -45 54 -19 24 -40 48 -46 54 -11 12 -169 198 -192 228 -11 14
-6 17 50 27 35 6 74 13 88 16 64 12 225 70 316 115 147 71 276 171 375 290
159 190 240 424 240 694 0 131 -7 189 -36 309 -73 297 -277 544 -571 691 -171
86 -305 124 -574 162 -57 8 -1550 13 -1554 5z m1473 -255 c46 -4 106 -11 135
-17 28 -5 66 -12 85 -15 117 -19 321 -108 426 -186 160 -118 281 -297 311
-457 3 -14 7 -28 10 -32 15 -25 23 -221 11 -314 -42 -345 -279 -608 -647 -719
-213 -63 -289 -69 -978 -70 -545 -1 -552 -1 -553 19 0 22 0 1408 0 1650 l1
150 557 -1 c307 -1 596 -4 642 -8z"/>
</g>
</svg>
