<svg xmlns="http://www.w3.org/2000/svg" width="125" height="32" viewBox="0 0 125 32" fill="#fff">
  <g id="Layer_1" transform="translate(-8.2 -3.3)">
    <path d="M40.4,34.8h7.1V11.3l-7.1.8Zm28.1-9.4L60,3.3H52.1L65.2,34.7h6.4l13-31.4H76.9Zm20.7,9.4h7.1V3.3H89.2ZM115.8,3.3H103.1V34.7h12.7C126,34.7,133,27.8,133,19v-.1c.1-8.8-7-15.6-17.2-15.6m9.8,15.9c0,5.5-3.9,9.4-9.8,9.4h-5.5V9.6h5.5c5.9,0,9.8,3.9,9.8,9.6ZM31.2,13.3l-9.5,1.1L8.2,29.5v5.3h27V28.7H17.4ZM34,3.3H8.4v6H34Zm13.4,0H40.1v6h7.3Z"/>
  </g>
</svg>
