<svg xmlns="http://www.w3.org/2000/svg" width="205.999" height="31.357" viewBox="0 0 205.999 31.357" fill="#fff">
  <g transform="translate(-3.3 -3.2)">
    <path d="M81.951,18.82C85,22.461,88.881,29.155,91.23,34.206h9.043A81.068,81.068,0,0,0,89.7,17.293,72.573,72.573,0,0,0,100.038,3.2H90.995a66.6,66.6,0,0,1-9.043,12.332V3.435H74.2V34.323h7.751V18.82" transform="translate(12.369 0)"/>
    <path d="M23.266,3.4a76.752,76.752,0,0,1-5.637,12.214A67.636,67.636,0,0,1,11.991,3.4H3.3A70.916,70.916,0,0,0,13.87,21.956V34.288h7.751V21.956A70.916,70.916,0,0,0,32.192,3.4H23.266" transform="translate(0 0.035)"/>
    <path d="M35.5,3.4c-3.876,7.751-8.456,20.905-10.8,30.888h8.221c.352-1.644.822-3.406,1.292-5.168H45.135c.47,1.762.94,3.523,1.292,5.168h8.221A166.533,166.533,0,0,0,43.844,3.4H35.5m.352,19.613c1.174-3.993,2.466-8.1,3.758-11.745,1.292,3.758,2.584,7.751,3.758,11.745Z" transform="translate(3.733 0.035)"/>
    <path d="M68.852,17.881,61.57,14.827c-1.762-.822-2.584-1.292-2.584-2.584,0-1.527.587-2.114,1.762-2.349,2.349-.352,7.282,0,11.862,1.057V4.14A60.4,60.4,0,0,0,62.275,3.2a36.94,36.94,0,0,0-5.168.352C53,4.257,51,6.723,51,11.891c0,3.641,1.292,6.459,4.933,7.986l7.282,3.054c1.762.822,2.584,1.292,2.584,2.584,0,1.527-.587,2.114-1.762,2.349a43.95,43.95,0,0,1-11.862-1.057v6.812a60.4,60.4,0,0,0,10.335.94,24.89,24.89,0,0,0,5.168-.47c4.111-.7,6.107-3.054,6.107-8.339-.117-4.111-1.409-6.342-4.933-7.869" transform="translate(8.321 0)"/>
    <path d="M105.405,3.4c-3.876,7.751-8.456,20.905-10.8,30.888h8.221c.352-1.644.822-3.406,1.292-5.168h10.922c.47,1.762.94,3.523,1.292,5.168h8.221c-2.349-10.1-6.929-23.254-10.8-30.888h-8.339m.47,19.613c1.174-3.993,2.466-8.1,3.758-11.745,1.292,3.758,2.584,7.751,3.758,11.745Z" transform="translate(15.928 0.035)"/>
    <path d="M153.064,3.4c-1.174,6.342-2.819,14.093-4.7,20.905-1.879-6.929-3.758-14.681-4.815-20.905h-7.516c-1.174,6.225-2.936,13.976-4.815,20.905-1.762-6.929-3.523-14.563-4.7-20.905H118.3a318.558,318.558,0,0,0,8.691,30.888h8.456c1.292-4.58,2.819-10.8,4.228-16.912,1.409,6.107,2.936,12.214,4.228,16.912h8.456A318.567,318.567,0,0,0,161.05,3.4h-7.986" transform="translate(20.062 0.035)"/>
    <path d="M174.91,34.288h8.221c-2.349-10.1-6.929-23.254-10.8-30.888h-8.221a156.177,156.177,0,0,0-10.8,30.888h8.221c.352-1.644.822-3.406,1.292-5.168h10.922c.352,1.762.822,3.641,1.174,5.168M164.457,23.013c1.174-3.993,2.466-8.1,3.758-11.745,1.292,3.758,2.584,7.751,3.758,11.745Z" transform="translate(26.168 0.035)"/>
  </g>
</svg>
