<svg xmlns="http://www.w3.org/2000/svg" id="icon-up" class="icon icon--up" viewBox="0 0 89 102">
  <path d="M44.3008,102.31.001,76.7324V68.9492H14.5859a46.6516,46.6516,0,0,1,11.7969,1.3994,68.9568,68.9568,0,0,1,8.5894,2.9248l.0786.03c4.4038,1.7383,8.56,3.3789,14.3545,3.3789a15.277,15.277,0,0,0,8.8105-2.3808c2.128-1.44,2.6963-2.9161,2.6963-3.4932,0-.4609-1.1914-.59-1.5566-.6182-1.4-.1084-2.3438-.8906-2.4034-1.9922a2.5473,2.5473,0,0,1,2.38-2.4433A6.1618,6.1618,0,0,0,62.45,64.3662a2.2734,2.2734,0,0,0,.7744-1.6387,1.7825,1.7825,0,0,0-.4746-1.1728,2.9051,2.9051,0,0,0-1.5537-.86c-2.1973-.497-2.2744-1.7968-2.2461-2.1845.0742-1.0186,1.0576-1.7754,2.4463-1.8838a4.3986,4.3986,0,0,0,2.6973-1.044,2.2056,2.2056,0,0,0,.73-1.6093,1.8862,1.8862,0,0,0-.5351-1.3008,3.0407,3.0407,0,0,0-1.8106-.836c-1.956-.2627-2.2519-1.3618-2.29-1.8222a2.6742,2.6742,0,0,1,2.1758-2.5078c1.9482-.5987,2.7812-1.4771,2.7812-2.9361,0-1.7954-1.6631-2.83-4.3945-2.85-.13,0-.2627.0005-.3965.0088-.293.0117-.5859.0181-.8945.0181-3.1582,0-9.086-.6431-12.4717-2.4141l-.6934-.3628.1856-.76a43.6158,43.6158,0,0,0,1.2256-11.5406c-.1846-5.2768-1.44-7.6323-2.1709-8.5659a3.0052,3.0052,0,0,0-2.4375-1.2964c-2.7574,0-3.606,2.5879-4.7618,6.81-.1279.4673-.2583.9429-.3911,1.4072-2.0844,7.2417-5.2983,12.34-9.8247,15.5869-4.17,2.9932-8.8965,4.041-13.3828,4.7271l-.1392.0117L.001,45.5293V25.5776L44.3008,0l44.3,25.5776V76.7324ZM2.001,75.5781l42.3,24.4229,42.3-24.4229V26.7319L44.3008,2.31,2.001,26.7319v16.773l12.5024-.1538c4.2193-.649,8.6436-1.6319,12.4507-4.3648,4.147-2.9746,7.1133-7.7221,9.0684-14.5141.13-.4556.2587-.9234.3794-1.3638,1.0678-3.9014,2.2719-8.3013,6.7016-8.3013A4.9831,4.9831,0,0,1,47.1387,16.91c1.0478,1.3349,2.372,4.14,2.5664,9.6972A45.7019,45.7019,0,0,1,48.61,37.8887c3.1474,1.3471,8.207,1.8584,10.85,1.8584.2812,0,.5468-.0054.792-.0152.1718-.0112.3642-.0117.5507-.0117,4.6817,0,6.3428,2.6123,6.3428,4.85,0,2.3618-1.4121,3.9932-4.1973,4.8491a1.6616,1.6616,0,0,0-.64.3453,2.3956,2.3956,0,0,0,.4023.0854,5.0313,5.0313,0,0,1,2.9971,1.4136,3.9036,3.9036,0,0,1,1.1162,2.7222,4.2349,4.2349,0,0,1-1.416,3.1044,6.3845,6.3845,0,0,1-3.8945,1.5323,1.6882,1.6882,0,0,0-.211.03c.0879.0293.1905.0586.3116.086a4.8852,4.8852,0,0,1,2.6025,1.457,3.7981,3.7981,0,0,1,1.0068,2.5606,4.3019,4.3019,0,0,1-1.4736,3.13,8.1271,8.1271,0,0,1-4.0928,1.8428c-.5244.0977-.6943.332-.709.39.0147-.0567.22.0517.5625.0781,2.96.2324,3.4014,1.7363,3.4014,2.6123,0,1.3193-.9463,3.3691-3.6006,5.166a17.2942,17.2942,0,0,1-9.9414,2.707h-.0039c-6.06,0-10.3555-1.665-14.873-3.4482h-.01l-.1929-.0772a66.9313,66.9313,0,0,0-8.4077-2.871,45.039,45.039,0,0,0-11.289-1.336H2.001Z"/>
</svg>
