<svg xmlns="http://www.w3.org/2000/svg" id="icon-future-pick-place" class="icon icon--future-pick-place" viewBox="0 0 96 88">
        <g transform="translate(-309.922 -837.372)">
                <path d="M58.29,83.11V72.819L67.2,67.672l8.913,5.146V83.11L67.2,88.256Zm-19.432,0V72.819l8.914-5.146,8.912,5.146V83.11l-8.912,5.146Zm-19.429,0V72.819l8.915-5.146,8.911,5.146V83.11l-8.911,5.146ZM68,66.191V55.9l8.911-5.146L85.831,55.9V66.191l-8.916,5.146Zm-19.431,0V55.9l8.913-5.146L66.4,55.9V66.191l-8.915,5.146Zm-19.429,0V55.9l8.913-5.146L46.972,55.9V66.191l-8.914,5.146Zm-19.429,0V55.9l8.914-5.146L27.543,55.9V66.191L18.63,71.338Zm68-16.916V38.982l8.913-5.146,8.913,5.146V49.275L86.632,54.42Zm-19.431,0V38.982L67.2,33.836l8.913,5.146V49.275L67.2,54.42Zm-19.43,0V38.982l8.914-5.146,8.912,5.146V49.275L47.772,54.42Zm-19.429,0V38.982l8.915-5.146,8.911,5.146V49.275L28.345,54.42ZM0,49.275V38.982l8.915-5.146,8.912,5.146V49.275L8.915,54.42ZM68,32.357V22.065l8.911-5.146,8.916,5.146V32.357L76.915,37.5Zm-19.431,0V22.065l8.913-5.146L66.4,22.065V32.357L57.486,37.5Zm-19.429,0V22.065l8.913-5.146,8.914,5.146V32.357L38.058,37.5Zm-19.429,0V22.065l8.914-5.146,8.913,5.146V32.357L18.63,37.5ZM58.288,15.439V5.146L67.2,0l8.913,5.146V15.439L67.2,20.586Zm-19.43,0V5.146L47.772,0l8.912,5.146V15.439l-8.912,5.146Zm-19.429,0V5.146L28.345,0l8.911,5.146V15.439l-8.911,5.146Z" transform="translate(309.922 837.372)" fill="#3c3c3c"/>
                <path d="M27.676,64.494l-.971-.591L4.675,50.524l3.79-2.189,19.26,11.7,22.03-12.717V25.235L27.7,38.059l-.964-.563L0,21.89l2.86-1.654L22.963,8.62l-4.9-2.776L35.112,3.19,32.247,13.883l-5.41-3.067L7.643,21.907,27.7,33.617,53.595,18.561V49.53L27.676,64.494h0Z" transform="translate(329.898 846.996)" fill="#fff"/>
        </g>
</svg>
