<svg xmlns="http://www.w3.org/2000/svg" id="icon-future-quality" class="icon icon--future-quality" viewBox="0 0 96 88">
        <g transform="translate(-309.922 -957.372)">
                <path d="M58.29,83.11V72.819L67.2,67.672l8.913,5.146V83.11L67.2,88.256Zm-19.432,0V72.819l8.914-5.146,8.912,5.146V83.11l-8.912,5.146Zm-19.429,0V72.819l8.915-5.146,8.911,5.146V83.11l-8.911,5.146ZM68,66.191V55.9l8.911-5.146L85.831,55.9V66.191l-8.916,5.146Zm-19.431,0V55.9l8.913-5.146L66.4,55.9V66.191l-8.915,5.146Zm-19.429,0V55.9l8.913-5.146L46.972,55.9V66.191l-8.914,5.146Zm-19.429,0V55.9l8.914-5.146L27.543,55.9V66.191L18.63,71.338Zm68-16.916V38.982l8.913-5.146,8.913,5.146V49.275L86.632,54.42Zm-19.431,0V38.982L67.2,33.836l8.913,5.146V49.275L67.2,54.42Zm-19.43,0V38.982l8.914-5.146,8.912,5.146V49.275L47.772,54.42Zm-19.429,0V38.982l8.915-5.146,8.911,5.146V49.275L28.345,54.42ZM0,49.275V38.982l8.915-5.146,8.912,5.146V49.275L8.915,54.42ZM68,32.357V22.065l8.911-5.146,8.916,5.146V32.357L76.915,37.5Zm-19.431,0V22.065l8.913-5.146L66.4,22.065V32.357L57.486,37.5Zm-19.429,0V22.065l8.913-5.146,8.914,5.146V32.357L38.058,37.5Zm-19.429,0V22.065l8.914-5.146,8.913,5.146V32.357L18.63,37.5ZM58.288,15.439V5.146L67.2,0l8.913,5.146V15.439L67.2,20.586Zm-19.43,0V5.146L47.772,0l8.912,5.146V15.439l-8.912,5.146Zm-19.429,0V5.146L28.345,0l8.911,5.146V15.439l-8.911,5.146Z" transform="translate(309.922 957.372)" fill="#3c3c3c"/>
                <path d="M-13.637,0h-1.812l0,25.849L-37.836,12.926l-1.812,3.137L-17.26,28.988-39.648,41.913l1.812,3.138,22.387-12.925,0,25.85h3.623V32.126L10.561,45.051l1.811-3.137h0L-10.015,28.988,12.372,16.063h0l-1.811-3.137L-11.827,25.849l0-25.849Z" transform="translate(371.333 973.514)" fill="#fff"/>
        </g>
</svg>
