<svg xmlns="http://www.w3.org/2000/svg" id="icon-smart-ai"  class="icon icon--smart-ai" viewBox="0 0 75 86">
    <path d="M37.373 1.154 1 22.154v42l36.373 21 36.373-21v-42Z" fill="none" stroke="#000" stroke-width="2"/>
    <path d="M55.504 44.027h8.728a2.747 2.747 0 1 0 0-1.883h-8.728v-5.913h2.47a2.746 2.746 0 1 0-.034-1.883h-3.378a.942.942 0 0 0-.942.942v6.855h-4.992v-4.659a.942.942 0 0 0-.471-.815l-2.862-1.652 7.369-5.361h11.567a2.747 2.747 0 1 0 0-1.883H53.299v-7.15a2.746 2.746 0 1 0-1.883.058v7.553l-7.905 5.752-5.314-3.068V18.809h3.122a2.747 2.747 0 1 0 0-1.883h-3.123v-5.5a2.75 2.75 0 0 0-.942-5.327 2.75 2.75 0 0 0-.942 5.327v5.5h-2.8a2.747 2.747 0 1 0 0 1.883h2.8v12.3l-4.991 2.882-7.905-5.752v-7.556a2.749 2.749 0 0 0-.863-5.353.942.942 0 0 0 0 1.883.863.863 0 1 1-.819 1.138.942.942 0 0 0-1.785.6 2.743 2.743 0 0 0 1.584 1.675v7.146H10.601a2.747 2.747 0 1 0 0 1.883h11.568l7.369 5.361-2.864 1.656a.942.942 0 0 0-.471.815v4.658h-4.991v-6.856a.942.942 0 0 0-.938-.941h-3.38a2.746 2.746 0 1 0-.034 1.883h2.468v5.913h-8.727a2.747 2.747 0 1 0 0 1.883h8.728v5.913h-2.435a2.746 2.746 0 1 0-.034 1.883h3.414a.942.942 0 0 0 .942-.942v-6.854h4.993v5.317a.942.942 0 0 0 .471.815l2.862 1.652-7.373 5.361H10.601a2.747 2.747 0 1 0 0 1.883h10.932v6.287a2.746 2.746 0 1 0 1.883-.058v-6.69l7.905-5.752 5.153 2.975v11.341h-2.961a2.747 2.747 0 1 0 0 1.883h2.961v4.843a2.747 2.747 0 1 0 1.883 0v-4.843h2.961a2.747 2.747 0 1 0 0-1.883h-2.96V55.817l5.152-2.975 7.905 5.752v6.69a2.746 2.746 0 1 0 1.883.058v-6.285h10.933a2.747 2.747 0 1 0 0-1.883H52.663l-7.368-5.362 2.844-1.64a.942.942 0 0 0-.942-1.631l-9.781 5.647-9.328-5.386V38.029l9.328-5.386 9.328 5.386v6.317a.942.942 0 0 0 1.883 0v-.32h4.993v6.856a.942.942 0 0 0 .942.942h3.412a2.746 2.746 0 1 0-.034-1.883h-2.436v-5.914Zm11.308-1.8a.863.863 0 1 1-.863.863.864.864 0 0 1 .863-.868Zm-6.278-7.848a.863.863 0 1 1-.863.863.864.864 0 0 1 .863-.863Zm6.278-6.527a.863.863 0 1 1-.863.863.864.864 0 0 1 .863-.863ZM52.274 17.213a.863.863 0 1 1-.863.863.864.864 0 0 1 .863-.863Zm-8.38-.208a.863.863 0 1 1-.863.863.864.864 0 0 1 .868-.863ZM37.255 7.98a.864.864 0 0 1 .863.863.863.863 0 0 1-1.726 0 .864.864 0 0 1 .863-.863Zm-6.322 10.751a.863.863 0 1 1 .863-.863.864.864 0 0 1-.863.863ZM8.021 29.578a.863.863 0 1 1 .863-.863.864.864 0 0 1-.863.863Zm6.278 6.527a.863.863 0 1 1 .863-.863.864.864 0 0 1-.864.863Zm-6.278 7.844a.863.863 0 1 1 .863-.863.864.864 0 0 1-.863.863Zm6.278 7.749a.863.863 0 1 1 .863-.863.864.864 0 0 1-.864.863Zm-6.278 7.28a.863.863 0 1 1 .863-.863.864.864 0 0 1-.863.863Zm14.533 9.777a.863.863 0 1 1 .863-.863.864.864 0 0 1-.864.863Zm8.38.208a.863.863 0 1 1 0-1.726c.629 0 .8.489.855.978a.864.864 0 0 1-.856.748Zm6.483 8.365a.863.863 0 1 1 .863-.863.864.864 0 0 1-.864.863ZM43.9 67.237a.863.863 0 1 1-.855.978.865.865 0 0 0 0-.229.864.864 0 0 1 .854-.75Zm8.374 1.518a.863.863 0 1 1 .863-.863.864.864 0 0 1-.863.863Zm14.533-11.5a.863.863 0 1 1-.847 1.028.91.91 0 0 0 0-.329.864.864 0 0 1 .852-.702Zm-6.273-7.283a.863.863 0 1 1-.863.863.864.864 0 0 1 .863-.863Z"/>
    <path d="M36.101 39.098a1.266 1.266 0 0 0-2.342 0l-.01.025-2.888 7.583a1.092 1.092 0 1 0 2.04.777l.451-1.186h3.133l.446 1.183a1.092 1.092 0 0 0 2.043-.771l-2.862-7.584c0-.01-.007-.02-.011-.03Zm-1.917 5.018.742-1.949.736 1.949Z"/>
    <path d="M40.406 39.406v7.692a1.092 1.092 0 0 0 2.183 0v-7.692a1.092 1.092 0 0 0-2.183 0Z"/>
</svg>
