<svg xmlns="http://www.w3.org/2000/svg" id="icon-versalitaet" class="icon icon--versalitaet" width="75" height="85" viewBox="0 0 75 85">
  <path d="M34.4609,84.6318,0,64.7324V21.5776L37.374,0,74.7471,21.5776V64.7324L40.2881,84.627V61.8379a13.5309,13.5309,0,0,1,3.9756-9.5674A13.3837,13.3837,0,0,1,53.6885,48.3H54.93v7.3467L67.123,45.3857,54.93,35.1279V42.48H53.7a19.2426,19.2426,0,0,0-11.91,4.21l-1.624,1.2969V31.8091h7.47L37.376,19.6143,27.1152,31.8091h7.4707V47.9863L32.9624,46.69a19.2561,19.2561,0,0,0-11.9165-4.21h-1.231V35.1279L7.6211,45.3857,19.8149,55.6465V48.3018h1.233a13.3872,13.3872,0,0,1,9.4384,3.9765,13.5278,13.5278,0,0,1,3.9746,9.5625ZM2,63.5781,32.4609,81.167V61.84a11.5247,11.5247,0,0,0-3.3881-8.1474,11.39,11.39,0,0,0-7.2579-3.3574v9.6084l-17.3-14.5577,17.3-14.5537v9.6656a21.2566,21.2566,0,0,1,10.771,3.4545V33.8091H22.8184L37.376,16.5078,51.9326,33.8091H42.166V43.9512A21.25,21.25,0,0,1,52.93,40.4976V30.832L70.2305,45.3857,52.93,59.9434V50.332a11.3851,11.3851,0,0,0-7.252,3.3535,11.5244,11.5244,0,0,0-3.39,8.15V81.1621l30.459-17.584V22.7319L37.374,2.31,2,22.7319Z"/>
</svg>
