<svg xmlns="http://www.w3.org/2000/svg" id="icon-down" class="icon icon--down" viewBox="0 0 89 102"><path d="M48.0371,102.1553H40.5688l1.7339-1.001L.0049,76.7324V56.9561l14.896.1933c4.4834.6875,9.2075,1.7363,13.3818,4.73,4.5269,3.2461,7.7407,8.3437,9.8247,15.584.1363.4707.2681.9531.3916,1.4062,1.1553,4.2266,2.003,6.8154,4.7676,6.8154a2.9758,2.9758,0,0,0,2.4023-1.2568c.9239-1.1816,2.0264-3.5957,2.2012-8.6142a43.7115,43.7115,0,0,0-1.2265-11.5372l-.1856-.76.6934-.3623c3.3847-1.7715,9.3086-2.4141,12.4638-2.4141.3145,0,.6055.0049.877.0166,2.9619.1074,4.8125-.956,4.8125-2.8437,0-1.458-.833-2.337-2.7852-2.9366a2.6886,2.6886,0,0,1-2.1728-2.5068c.039-.4609.3349-1.56,2.2578-1.8149a3.0791,3.0791,0,0,0,1.8623-.8589,1.8806,1.8806,0,0,0,.5166-1.2993,2.2105,2.2105,0,0,0-.7441-1.6045,4.358,4.358,0,0,0-2.6436-1.0279c-1.4307-.1137-2.4131-.873-2.4863-1.8911-.0283-.3882.0488-1.6919,2.2246-2.1787a2.9357,2.9357,0,0,0,1.583-.873,1.7865,1.7865,0,0,0,.4658-1.1988A2.2678,2.2678,0,0,0,62.6,38.1113,6.1105,6.1105,0,0,0,59.5322,36.74c-1.748-.3208-2.4707-1.4931-2.4209-2.45.044-.8374.6992-1.8637,2.4043-1.9961.3633-.0283,1.5537-.1577,1.5557-.6191,0-.5723-.5684-2.0478-2.7217-3.5049a15.1921,15.1921,0,0,0-8.75-2.3652c-5.8291,0-9.9849,1.64-14.3848,3.3765l-.166.0654A68.8583,68.8583,0,0,1,26.56,32.1309a46.8914,46.8914,0,0,1-11.8223,1.4033H.001V25.5776L44.3008,0l44.3,25.5776V76.7324L46.3027,101.1543ZM2.0049,75.5781,44.3027,99.999,86.6006,75.5781V26.7319L44.3008,2.31,2.001,26.7319v4.8023H14.7451a46.0967,46.0967,0,0,0,11.315-1.34A66.7079,66.7079,0,0,0,34.4487,27.33l.2041-.0772c4.5215-1.7837,8.8169-3.4477,14.9117-3.4477a17.2266,17.2266,0,0,1,9.8818,2.6924c2.6787,1.8129,3.625,3.8628,3.625,5.1816-.0039.8774-.45,2.377-3.4,2.6089a.9676.9676,0,0,0-.5811.17,2.4088,2.4088,0,0,0,.7647.3081,8.0776,8.0776,0,0,1,4.0449,1.8247,4.2957,4.2957,0,0,1,1.4834,3.106,3.8069,3.8069,0,0,1-1,2.5854,4.9076,4.9076,0,0,1-2.6338,1.4688,3.0288,3.0288,0,0,0-.2929.081,1.9979,1.9979,0,0,0,.2578.0371,6.3426,6.3426,0,0,1,3.8388,1.5152,4.2307,4.2307,0,0,1,1.4307,3.1,3.9036,3.9036,0,0,1-1.0967,2.7212,5.0828,5.0828,0,0,1-3.0517,1.4365,2.0369,2.0369,0,0,0-.3819.084,2.0045,2.0045,0,0,0,.6553.34c2.7842.8555,4.1963,2.4873,4.1963,4.8477,0,2.3252-1.8359,5.06-6.8926,4.8418-.248-.01-.5117-.0147-.7969-.0147-2.6406,0-7.6963.5117-10.8418,1.8584A45.7446,45.7446,0,0,1,49.8691,75.877c-.1933,5.5634-1.5185,8.37-2.5966,9.7451a4.9558,4.9558,0,0,1-4,2.0634c-4.4375,0-5.6407-4.4023-6.7022-8.2861-.1216-.4473-.2515-.92-.3848-1.3818-1.955-6.791-4.9209-11.5381-9.0683-14.5127-3.8115-2.7334-8.2339-3.7178-12.4507-4.3682L2.0049,58.9814Z"/></svg>
