<svg xmlns="http://www.w3.org/2000/svg" id="icon-future-assembly" class="icon--future-assembly" viewBox="0 0 96 88">
        <path d="M58.29 83.11V72.819l8.91-5.147 8.913 5.146V83.11L67.2 88.256Zm-19.432 0V72.819l8.914-5.146 8.912 5.146V83.11l-8.912 5.146Zm-19.429 0V72.819l8.915-5.146 8.911 5.146V83.11l-8.911 5.146ZM68 66.191V55.9l8.911-5.146 8.92 5.146v10.291l-8.916 5.146Zm-19.431 0V55.9l8.913-5.146L66.4 55.9v10.291l-8.915 5.146Zm-19.429 0V55.9l8.913-5.146 8.919 5.146v10.291l-8.914 5.146Zm-19.429 0V55.9l8.914-5.146 8.918 5.146v10.291l-8.913 5.147Zm68-16.916V38.982l8.913-5.146 8.913 5.146v10.293l-8.905 5.145Zm-19.431 0V38.982l8.92-5.146 8.913 5.146v10.293L67.2 54.42Zm-19.43 0V38.982l8.914-5.146 8.912 5.146v10.293l-8.904 5.145Zm-19.429 0V38.982l8.915-5.146 8.911 5.146v10.293l-8.902 5.145ZM0 49.275V38.982l8.915-5.146 8.912 5.146v10.293L8.915 54.42Zm68-16.918V22.065l8.911-5.146 8.916 5.146v10.292L76.915 37.5Zm-19.431 0V22.065l8.913-5.146 8.918 5.146v10.292L57.486 37.5Zm-19.429 0V22.065l8.913-5.146 8.914 5.146v10.292L38.058 37.5Zm-19.429 0V22.065l8.914-5.146 8.913 5.146v10.292L18.63 37.5Zm48.577-16.918V5.146L67.2 0l8.913 5.146v10.293L67.2 20.586Zm-19.43 0V5.146L47.772 0l8.912 5.146v10.293l-8.912 5.146Zm-19.429 0V5.146L28.345 0l8.911 5.146v10.293l-8.911 5.146Z" fill="#3c3c3c"/>
        <path d="m23.312 59.077 8.626-5 15.342 9.417 14.847-9.113 8.1 4.7L46.77 73.477Zm.511-14.5 8.363-4.847 15.094 9.264 15.1-9.264 8.359 4.847-23.459 14.4Zm23.458-.107-11.3-6.938-12.158-7.455 23.458-13.6 23.458 13.6-12.153 7.455Z" fill="#fff"/>
</svg>
