<svg xmlns="http://www.w3.org/2000/svg" id="icon-open-interfaces"  class="icon icon--open-interfaces" viewBox="0 0 101 111">
    <path d="M10.876 109.756a8.818 8.818 0 0 0 6.969-10.9 6.853 6.853 0 0 1 5.956-8.556l13.574 7.837 11.233-6.485a7.06 7.06 0 0 0 1.115-6.563 6.586 6.586 0 0 0-4.654-4.372 8.2 8.2 0 0 1-5.124-3.771 9.129 9.129 0 0 1-1.1-5.77 8.955 8.955 0 0 1 2.395-5.115 7.415 7.415 0 0 1 5.432-2.23 9.731 9.731 0 0 1 1.578.136 8.811 8.811 0 0 1 6.969 10.9 6.52 6.52 0 0 0 1.11 5.789 7.107 7.107 0 0 0 5.605 2.806 6.458 6.458 0 0 0 .987-.076l10.827-6.251V64.642a6.9 6.9 0 0 1 11.369-2.753c7.355 7.412 19.7-2.869 12.916-11.132a8.821 8.821 0 0 0-12.926-.585c-3.737 3.785-9.861 1.792-11.359-2.759V35.135l-10.483-6.052a7.12 7.12 0 0 0-5.394 2.906 6.547 6.547 0 0 0-1.034 5.7 8.562 8.562 0 0 1 .174 4 7.926 7.926 0 0 1-1.49 3.252 9.517 9.517 0 0 1-7.428 3.647 7.7 7.7 0 0 1-4.283-1.25 8.1 8.1 0 0 1-3.068-4.027 8.819 8.819 0 0 1 5.954-11.486 6.51 6.51 0 0 0 4.4-3.717 7.137 7.137 0 0 0-.171-6.14l-13.549-7.823-11.031 6.368a6.874 6.874 0 0 1-6.181-8.589c2.74-10.075-12.337-15.621-16.1-5.618a8.816 8.816 0 0 0 5.956 11.486 6.861 6.861 0 0 1 4.335 9.641L1.001 35.135v13a7.027 7.027 0 0 0 6.668 4.8 6.531 6.531 0 0 0 4.717-1.993 8.182 8.182 0 0 1 5.878-2.55 8.971 8.971 0 0 1 4.889 1.497 9.4 9.4 0 0 1 3.365 3.793 7.542 7.542 0 0 1 .706 4.074 8.23 8.23 0 0 1-1.923 4.309 8.81 8.81 0 0 1-12.926.585 6.486 6.486 0 0 0-4.7-1.99 7.04 7.04 0 0 0-6.674 4.802v11.673l11.134 6.429a6.869 6.869 0 0 1-4.441 9.442c-9.57 2.524-7.609 16.883 1.607 16.883a9.916 9.916 0 0 0 1.575-.133Z" fill="none" stroke="#000" stroke-width="2"/>
</svg>
