<svg xmlns="http://www.w3.org/2000/svg" id="icon-advantage-two" class="icon icon--advantage-two" viewBox="0 0 75 86">
        <path d="M41.1064,86.1553H33.6392l1.7334-1.001L-.001,64.7324V20.5391L35.8711,41.251V.8638L37.3716,0,74.7432,21.5767V64.7324L39.373,85.1543ZM1.999,63.5781,37.3726,84,72.7432,63.5781V22.731L37.8711,2.5972V44.7148L1.999,24.0029Z" transform="translate(0.001 0.0005)"/><path d="M45.0293,29.9611a16.486,16.486,0,1,1-23.61,20.2105l2.611,1.5075a1.832,1.832,0,1,0,1.841-3.1679l-.009-.0052-6.3453-3.6635a1.832,1.832,0,0,0-2.5009.6715l-3.6635,6.3454A1.832,1.832,0,1,0,16.52,53.7l.0052-.009,1.4-2.4249A20.14,20.14,0,1,0,46.8613,26.788a1.832,1.832,0,0,0-1.832,3.1731Z" transform="translate(0.001 0.0005)"/>
        <path style="fill:#fff;" d="M36.82,65.124A20.9339,20.9339,0,0,1,17.8154,52.957l-.6406,1.1094a2.5821,2.5821,0,1,1-4.4712-2.584l3.6626-6.3437a2.5855,2.5855,0,0,1,3.5249-.9453l6.3569,3.6689a2.5821,2.5821,0,0,1-.6367,4.7285,2.5553,2.5553,0,0,1-1.9585-.2637l-.53-.3056a15.7348,15.7348,0,0,0,17.7725,7.4219,15.7361,15.7361,0,0,0,3.76-28.8326l-.003-.0014a2.5818,2.5818,0,0,1,2.5821-4.4717A20.89,20.89,0,0,1,36.82,65.124ZM18.0718,49.5127l.5561,1.4922A19.39,19.39,0,1,0,46.4863,27.4375a1.082,1.082,0,0,0-1.082,1.874,17.2361,17.2361,0,1,1-24.6851,21.13l-.7622-1.98,4.4478,2.5674a1.0824,1.0824,0,0,0,1.1465-1.835l-.1055-.0644-6.3042-3.6377a1.0828,1.0828,0,0,0-1.4766.3965l-3.6635,6.3457a1.082,1.082,0,1,0,1.87,1.0888Z" transform="translate(0.001 0.0005)"/>
</svg>
